<?xml version="1.0" standalone="no"?>
<!DOCTYPE svg PUBLIC "-//W3C//DTD SVG 20010904//EN"
 "http://www.w3.org/TR/2001/REC-SVG-20010904/DTD/svg10.dtd">
<svg version="1.0" xmlns="http://www.w3.org/2000/svg"
 width="236.000000pt" height="55.000000pt" viewBox="0 0 236.000000 55.000000"
 preserveAspectRatio="xMidYMid meet">

<g transform="translate(0.000000,55.000000) scale(0.100000,-0.100000)"
fill="#000000" stroke="none">
<path d="M2013 525 c-83 -36 -95 -158 -22 -220 59 -49 167 -26 195 40 31 74 4
153 -61 181 -42 17 -71 17 -112 -1z"/>
<path d="M172 320 c-40 -5 -80 -14 -89 -21 -61 -51 -55 -224 9 -261 33 -18
343 -18 376 0 32 18 52 70 52 135 0 66 -14 108 -41 125 -21 14 -142 32 -199
30 -19 0 -68 -4 -108 -8z m219 -60 c16 -9 19 -22 19 -84 0 -97 -5 -101 -130
-101 -124 0 -130 5 -130 96 0 94 7 99 126 99 53 0 104 -5 115 -10z"/>
<path d="M883 300 c-2 -18 4 -20 48 -20 42 0 49 3 49 20 0 17 -7 20 -48 20
-41 0 -48 -3 -49 -20z"/>
<path d="M1850 261 c0 -13 -8 -21 -22 -23 -15 -2 -24 -11 -26 -25 -3 -19 1
-23 22 -23 25 0 26 -2 26 -64 0 -96 23 -111 151 -104 77 4 99 19 99 65 0 20
-5 23 -36 23 -27 0 -37 -5 -41 -19 -10 -41 -69 -37 -79 5 -3 13 -3 40 0 59 l7
35 69 0 c63 0 70 2 70 20 0 17 -7 20 -52 21 -62 1 -93 11 -93 30 0 10 -15 15
-47 17 -42 3 -48 1 -48 -17z"/>
<path d="M570 128 l0 -108 45 0 45 0 0 75 c0 63 3 76 19 85 31 16 70 12 83
-10 16 -26 98 -29 98 -4 0 29 -20 52 -56 64 -38 13 -109 7 -131 -12 -8 -7 -13
-7 -13 0 0 5 -20 12 -45 14 l-45 3 0 -107z"/>
<path d="M1125 233 c-69 -15 -95 -43 -95 -104 0 -48 25 -86 66 -99 54 -18 223
-9 257 13 15 10 27 24 27 32 0 21 -83 21 -100 0 -15 -18 -101 -21 -131 -5 -10
6 -19 20 -19 30 0 19 7 20 125 20 l125 0 0 29 c0 62 -57 91 -175 90 -33 -1
-69 -3 -80 -6z m157 -56 c15 -24 6 -27 -73 -27 -71 0 -80 2 -77 18 6 30 132
38 150 9z"/>
<path d="M1568 226 c-21 -8 -38 -10 -38 -5 0 5 -23 9 -50 9 l-51 0 3 -102 3
-103 48 -3 47 -3 0 75 c0 89 10 99 93 94 l52 -3 3 -82 3 -83 49 0 50 0 0 78
c0 53 -5 84 -15 99 -28 40 -126 54 -197 29z"/>
<path d="M887 218 c-2 -7 -4 -53 -3 -103 l1 -90 48 -3 47 -3 0 105 0 106 -44
0 c-26 0 -46 -5 -49 -12z"/>
</g>
</svg>
